<svg width="37" height="37" viewBox="0 0 37 37" fill="none" xmlns="http://www.w3.org/2000/svg">
<path d="M32.2165 4.78366C30.7715 3.33872 28.4288 3.33872 26.9839 4.78366L12.9502 18.8174V24.05H18.1828L32.2165 10.0162C33.6614 8.57131 33.6614 6.2286 32.2165 4.78366Z" fill="#111827"/>
<path fill-rule="evenodd" clip-rule="evenodd" d="M3.7002 11.1C3.7002 9.0565 5.35674 7.39995 7.4002 7.39995H14.8002C15.8219 7.39995 16.6502 8.22822 16.6502 9.24995C16.6502 10.2717 15.8219 11.1 14.8002 11.1H7.4002V29.5999H25.9002V22.2C25.9002 21.1782 26.7285 20.35 27.7502 20.35C28.7719 20.35 29.6002 21.1782 29.6002 22.2V29.5999C29.6002 31.6434 27.9436 33.2999 25.9002 33.2999H7.4002C5.35674 33.2999 3.7002 31.6434 3.7002 29.5999V11.1Z" fill="#111827"/>
</svg>
