<svg width="24" height="25" viewBox="0 0 24 25" fill="none" xmlns="http://www.w3.org/2000/svg">
<path fill-rule="evenodd" clip-rule="evenodd" d="M3.59961 20.9C3.59961 20.2373 4.13687 19.7 4.79961 19.7H19.1996C19.8624 19.7 20.3996 20.2373 20.3996 20.9C20.3996 21.5627 19.8624 22.1 19.1996 22.1H4.79961C4.13687 22.1 3.59961 21.5627 3.59961 20.9ZM7.55108 11.6515C8.01971 11.1828 8.77951 11.1828 9.24814 11.6515L10.7996 13.2029L10.7996 4.09999C10.7996 3.43725 11.3369 2.89999 11.9996 2.89999C12.6623 2.89999 13.1996 3.43725 13.1996 4.09999L13.1996 13.2029L14.7511 11.6515C15.2197 11.1828 15.9795 11.1828 16.4481 11.6515C16.9168 12.1201 16.9168 12.8799 16.4481 13.3485L12.8481 16.9485C12.6231 17.1736 12.3179 17.3 11.9996 17.3C11.6813 17.3 11.3761 17.1736 11.1511 16.9485L7.55108 13.3485C7.08245 12.8799 7.08245 12.1201 7.55108 11.6515Z" fill="#111827"/>
</svg>
